<svg width="32" height="32" viewBox="0 0 32 32" fill="none" xmlns="http://www.w3.org/2000/svg">
  <!-- Background Circle -->
  <circle cx="16" cy="16" r="15" fill="#151E3D" stroke="#F59E0B" stroke-width="2"/>
  
  <!-- Link/Chain Icon -->
  <rect x="10" y="10" width="12" height="12" rx="2" fill="white" fill-opacity="0.9"/>
  
  <!-- Link Holes -->
  <circle cx="13" cy="13" r="1.5" fill="#F59E0B"/>
  <circle cx="19" cy="13" r="1.5" fill="#F59E0B"/>
  <circle cx="13" cy="19" r="1.5" fill="#F59E0B"/>
  <circle cx="19" cy="19" r="1.5" fill="#F59E0B"/>
  
  <!-- Skill/Tool Icons -->
  <path d="M6 6L8 8L10 6L12 8L14 6" stroke="#F59E0B" stroke-width="1.5" stroke-linecap="round" stroke-linejoin="round"/>
  <path d="M18 6L20 8L22 6L24 8L26 6" stroke="#F59E0B" stroke-width="1.5" stroke-linecap="round" stroke-linejoin="round"/>
  <path d="M6 26L8 24L10 26L12 24L14 26" stroke="#F59E0B" stroke-width="1.5" stroke-linecap="round" stroke-linejoin="round"/>
  <path d="M18 26L20 24L22 26L24 24L26 26" stroke="#F59E0B" stroke-width="1.5" stroke-linecap="round" stroke-linejoin="round"/>
  
  <!-- Center Connection Lines -->
  <path d="M16 10V6M16 26V22M6 16H2M30 16H26" stroke="#F59E0B" stroke-width="1.5" stroke-linecap="round"/>
</svg>
